<svg class="diagram-root" style="background: #f5f6f6" xmlns="http://www.w3.org/2000/svg" xmlns:xlink="http://www.w3.org/1999/xlink"><style>.diagram-root { font-family: "Helvetica Neue", sans-serif; font-size: 12px; } .t { overflow: visible; } .t-bg { y: 40; fill: #fff;   } .th { fill: #005aa0;   } .tht { fill: #fff; font-size: 14px;  } .tf { fill: #323c46; overflow: visible; } .tf.pk { fill: #005aa0; font-weight: bold; } .tf.fk { font-weight: bold; } .ty { fill: #adb1b5; font-weight: normal; text-anchor: end; } .r { fill: transparent; stroke: #c3c3c3; stroke-width: 1; } .l { stroke: 1; } .i { fill: #c2c7ce; stroke: #c2c7ce; } .i.ix { fill: #afb3b6; stroke: #000; } .fa { fill: transparent; overflow: visible; } .fa .bg.hover { fill: #f7f7f7; } .c { cy: 12; r: 4; stroke: #d2d2dc; fill: #d2d2dc; } .hr { fill: transparent; stroke: #323c46; stroke-opacity: 0.035; stroke-width: 13; } .dc { stroke: #fa5a3c; fill: #fa5a3c; } .x { stroke: white; stroke-width: 1; } .hl .th { fill: #1b9bff; } .hl .tht {  } .fhl .bg { fill: #e7f4ff; } .fhls .bg {  } .r.hl { stroke: #1b9bff; } .dim { opacity: 0.25; }</style><g class="drawing-wrapper" transform="translate(-5, -36) scale(1,1)"><g class="rs"><path d="M 184.39 297 m -1, 0 a 1,1 0 1,0 2,0 a 1,1 0 1,0 -2,0 M 184.39 297 m -0.5, 0 a 0.5,0.5 0 1,0 1,0 a 0.5,0.5 0 1,0 -1,0  M184.39 297 L184.39 297 196.39 297 M 184.39 303 m -1, 0 a 1,1 0 1,0 2,0 a 1,1 0 1,0 -2,0 M 184.39 303 m -0.5, 0 a 0.5,0.5 0 1,0 1,0 a 0.5,0.5 0 1,0 -1,0  M184.39 303 L184.39 303 191.39 297 184.39 291 M 184.39 291 m -1, 0 a 1,1 0 1,0 2,0 a 1,1 0 1,0 -2,0 M 184.39 291 m -0.5, 0 a 0.5,0.5 0 1,0 1,0 a 0.5,0.5 0 1,0 -1,0  M196.39 297 Q 213.55 297, 230.7 244.5 T 265 192 M 277 192 m -1, 0 a 1,1 0 1,0 2,0 a 1,1 0 1,0 -2,0 M 277 192 m -0.5, 0 a 0.5,0.5 0 1,0 1,0 a 0.5,0.5 0 1,0 -1,0  M277 192 L277 192 265 192 M271 198 L271 198 271 186" id="h4240648054" class="r"></path><path d="M 583 311 m -1, 0 a 1,1 0 1,0 2,0 a 1,1 0 1,0 -2,0 M 583 311 m -0.5, 0 a 0.5,0.5 0 1,0 1,0 a 0.5,0.5 0 1,0 -1,0  M583 311 L583 311 571 311 M 583 317 m -1, 0 a 1,1 0 1,0 2,0 a 1,1 0 1,0 -2,0 M 583 317 m -0.5, 0 a 0.5,0.5 0 1,0 1,0 a 0.5,0.5 0 1,0 -1,0  M583 317 L583 317 576 311 583 305 M 583 305 m -1, 0 a 1,1 0 1,0 2,0 a 1,1 0 1,0 -2,0 M 583 305 m -0.5, 0 a 0.5,0.5 0 1,0 1,0 a 0.5,0.5 0 1,0 -1,0  M571 311 Q 544.01 311, 517.02 251.5 T 463.04 192 M 451.04 192 m -1, 0 a 1,1 0 1,0 2,0 a 1,1 0 1,0 -2,0 M 451.04 192 m -0.5, 0 a 0.5,0.5 0 1,0 1,0 a 0.5,0.5 0 1,0 -1,0  M451.04 192 L451.04 192 463.04 192 M457.04 198 L457.04 198 457.04 186" id="h3773626568" class="r"></path><path d="M 578 148 m -1, 0 a 1,1 0 1,0 2,0 a 1,1 0 1,0 -2,0 M 578 148 m -0.5, 0 a 0.5,0.5 0 1,0 1,0 a 0.5,0.5 0 1,0 -1,0  M578 148 L578 148 566 148 M 578 154 m -1, 0 a 1,1 0 1,0 2,0 a 1,1 0 1,0 -2,0 M 578 154 m -0.5, 0 a 0.5,0.5 0 1,0 1,0 a 0.5,0.5 0 1,0 -1,0  M578 154 L578 154 571 148 578 142 M 578 142 m -1, 0 a 1,1 0 1,0 2,0 a 1,1 0 1,0 -2,0 M 578 142 m -0.5, 0 a 0.5,0.5 0 1,0 1,0 a 0.5,0.5 0 1,0 -1,0  M566 148 Q 540.26 148, 514.52 170 T 463.04 192 M 451.04 192 m -1, 0 a 1,1 0 1,0 2,0 a 1,1 0 1,0 -2,0 M 451.04 192 m -0.5, 0 a 0.5,0.5 0 1,0 1,0 a 0.5,0.5 0 1,0 -1,0  M451.04 192 L451.04 192 463.04 192 M457.04 198 L457.04 198 457.04 186" id="h1409513440" class="r"></path></g><g class="hrs"></g><g class="ts"><svg width="157.39" height="200" x="27" y="115" id="h1964228003" class="t"><rect height="40" width="157.39" class="th"></rect><text x="13" y="25" class="tht">authenticators</text><rect height="160" width="157.39" class="t-bg"></rect><text x="13" y="61" class="tf pk">id<tspan x="144.39" class="ty">bytearray</tspan></text><path d="M7,14A2,2 0 0,1 5,12A2,2 0 0,1 7,10A2,2 0 0,1 9,12A2,2 0 0,1 7,14M12.65,10C11.83,7.67 9.61,6 7, 6A6, 6 0 0, 0 1, 12A6, 6 0 0, 0 7, 18C9.61, 18 11.83, 16.33 12.65, 14H17V18H21V14H23V10H12.65Z" class="i pk" transform="translate(74.36851562499999, 48) scale(0.65)"></path><text x="13" y="86" class="tf">credentialid<tspan x="144.39" class="ty">bytearray</tspan></text><text x="13" y="111" class="tf">publickey<tspan x="144.39" class="ty">bytearray</tspan></text><text x="13" y="136" class="tf">aaguid<tspan x="144.39" class="ty">bytearray</tspan></text><text x="13" y="161" class="tf">signcount<tspan x="144.39" class="ty">int</tspan></text><text x="13" y="186" class="tf fk">userid<tspan x="144.39" class="ty">varchar</tspan></text></svg><svg width="139.38" height="175" x="583" y="229" id="h2199521457" class="t"><rect height="40" width="139.38" class="th"></rect><text x="13" y="25" class="tht">passwds</text><rect height="135" width="139.38" class="t-bg"></rect><text x="13" y="61" class="tf pk">entryid<tspan x="126.38" class="ty">int</tspan></text><path d="M7,14A2,2 0 0,1 5,12A2,2 0 0,1 7,10A2,2 0 0,1 9,12A2,2 0 0,1 7,14M12.65,10C11.83,7.67 9.61,6 7, 6A6, 6 0 0, 0 1, 12A6, 6 0 0, 0 7, 18C9.61, 18 11.83, 16.33 12.65, 14H17V18H21V14H23V10H12.65Z" class="i pk" transform="translate(93.706171875, 48) scale(0.65)"></path><text x="13" y="86" class="tf fk">uuid<tspan x="126.38" class="ty">varchar</tspan></text><text x="13" y="111" class="tf">url<tspan x="126.38" class="ty">text</tspan></text><text x="13" y="136" class="tf">passwd<tspan x="126.38" class="ty">varchar</tspan></text><text x="13" y="161" class="tf">username<tspan x="126.38" class="ty">varchar</tspan></text></svg><svg width="174.04" height="175" x="277" y="135" id="h2948373614" class="t"><rect height="40" width="174.04" class="th"></rect><text x="13" y="25" class="tht">users</text><rect height="135" width="174.04" class="t-bg"></rect><text x="13" y="61" class="tf pk">uuid<tspan x="161.04" class="ty">varchar</tspan></text><path d="M7,14A2,2 0 0,1 5,12A2,2 0 0,1 7,10A2,2 0 0,1 9,12A2,2 0 0,1 7,14M12.65,10C11.83,7.67 9.61,6 7, 6A6, 6 0 0, 0 1, 12A6, 6 0 0, 0 7, 18C9.61, 18 11.83, 16.33 12.65, 14H17V18H21V14H23V10H12.65Z" class="i pk" transform="translate(101.02632812499999, 48) scale(0.65)"></path><text x="13" y="86" class="tf">mail<tspan x="161.04" class="ty">text</tspan></text><text x="13" y="111" class="tf">name<tspan x="161.04" class="ty">text</tspan></text><text x="13" y="136" class="tf">masterpassword<tspan x="161.04" class="ty">varchar</tspan></text><text x="13" y="161" class="tf">createdate<tspan x="161.04" class="ty">timestamp</tspan></text></svg><svg width="176.06" height="100" x="578" y="66" id="h763081409" class="t"><rect height="40" width="176.06" class="th"></rect><text x="13" y="25" class="tht">sessions</text><rect height="60" width="176.06" class="t-bg"></rect><text x="13" y="61" class="tf pk">sessiontoken<tspan x="163.06" class="ty">varchar</tspan></text><path d="M7,14A2,2 0 0,1 5,12A2,2 0 0,1 7,10A2,2 0 0,1 9,12A2,2 0 0,1 7,14M12.65,10C11.83,7.67 9.61,6 7, 6A6, 6 0 0, 0 1, 12A6, 6 0 0, 0 7, 18C9.61, 18 11.83, 16.33 12.65, 14H17V18H21V14H23V10H12.65Z" class="i pk" transform="translate(103.046328125, 48) scale(0.65)"></path><text x="13" y="86" class="tf fk">uuid<tspan x="163.06" class="ty">varchar</tspan></text></svg></g></g></svg>
